<?xml version="1.0" encoding="utf-8" ?>
<svg baseProfile="tiny" height="512" version="1.2" width="512" xmlns="http://www.w3.org/2000/svg" xmlns:ev="http://www.w3.org/2001/xml-events" xmlns:xlink="http://www.w3.org/1999/xlink"><defs /><polygon fill="black" points="266,261 266,271 267,272 267,274 269,276 291,276 292,277 293,277 295,279 295,294 293,296 266,296 266,297 265,298 265,299 263,301 263,302 262,303 262,304 261,305 261,306 260,307 260,308 258,310 258,312 293,312 294,311 297,311 298,310 300,310 302,308 303,308 306,305 306,304 308,302 308,301 309,300 309,296 310,295 310,276 309,275 309,271 308,270 308,269 302,263 301,263 300,262 299,262 298,261" /><polygon fill="black" points="200,225 200,226 202,228 202,229 204,231 204,232 206,234 206,235 208,237 208,238 210,240 210,241 213,244 213,245 215,247 215,248 217,250 217,251 219,253 219,254 221,256 221,257 223,259 223,260 225,262 225,263 227,265 227,266 229,268 229,269 231,271 231,272 233,274 233,275 234,276 234,277 235,278 235,312 250,312 251,311 251,277 252,276 252,275 255,272 255,271 257,269 257,268 259,266 259,265 261,263 261,262 263,260 263,259 264,258 264,257 266,255 266,254 267,253 267,252 269,250 269,249 271,247 271,246 272,245 272,244 275,241 301,241 302,240 302,239 303,238 303,237 305,235 305,234 307,232 307,231 309,229 309,228 311,226 311,225 270,225 269,226 268,226 267,227 266,227 261,232 261,233 259,235 259,236 257,238 257,239 254,242 254,243 252,245 252,246 250,248 250,249 248,251 248,252 246,254 246,255 243,258 239,254 239,253 237,251 237,250 235,248 235,247 233,245 233,244 231,242 231,241 230,240 230,239 228,237 228,236 226,234 226,233 225,232 225,231 223,229 223,228 221,226 221,225" /></svg>