<?xml version="1.0" encoding="utf-8" ?>
<svg baseProfile="tiny" height="512" version="1.2" width="512" xmlns="http://www.w3.org/2000/svg"><defs /><polygon fill="black" points="281,257 280,258 280,282 281,283 281,284 285,288 286,288 287,289 335,289 336,290 337,290 338,291 339,291 341,293 341,294 342,295 342,329 341,330 341,331 338,334 278,334 276,336 276,337 275,338 275,339 274,340 274,341 272,343 272,344 270,346 270,347 269,348 269,349 267,351 267,352 266,353 266,354 264,356 264,357 263,358 263,359 261,361 261,362 260,363 260,364 259,365 259,366 339,366 340,365 344,365 345,364 347,364 348,363 350,363 351,362 352,362 353,361 354,361 356,359 357,359 360,356 361,356 364,353 364,352 367,349 367,348 369,346 369,345 370,344 370,342 371,341 371,339 372,338 372,283 371,282 371,279 370,278 370,277 369,276 369,275 368,274 368,273 366,271 366,270 360,264 359,264 357,262 356,262 355,261 354,261 353,260 352,260 351,259 349,259 348,258 344,258 343,257" /><polygon fill="black" points="134,180 134,181 135,182 135,183 138,186 138,187 140,189 140,190 142,192 142,193 145,196 145,197 147,199 147,200 149,202 149,203 151,205 151,206 153,208 153,209 155,211 155,212 157,214 157,215 160,218 160,219 162,221 162,222 164,224 164,225 166,227 166,228 168,230 168,231 171,234 171,235 173,237 173,238 175,240 175,241 177,243 177,244 179,246 179,247 181,249 181,250 184,253 184,254 186,256 186,257 188,259 188,260 190,262 190,263 192,265 192,266 194,268 194,269 197,272 197,273 199,275 199,276 201,278 201,279 203,281 203,282 206,285 206,286 209,289 209,290 211,292 211,294 212,295 212,365 213,366 243,366 243,348 244,347 244,294 245,293 245,292 247,290 247,289 249,287 249,286 252,283 252,282 254,280 254,279 256,277 256,276 258,274 258,273 260,271 260,270 262,268 262,267 264,265 264,264 266,262 266,261 269,258 269,257 271,255 271,254 273,252 273,251 274,250 274,249 275,248 275,247 277,245 277,244 279,242 279,241 280,240 280,239 282,237 282,236 284,234 284,233 286,231 286,230 287,229 287,228 289,226 289,225 291,223 291,222 292,221 292,220 298,214 299,214 300,213 354,213 356,211 356,210 358,208 358,207 360,205 360,204 361,203 361,202 363,200 363,199 365,197 365,196 366,195 366,194 368,192 368,191 370,189 370,188 371,187 371,186 373,184 373,183 375,181 375,180 287,180 286,181 284,181 283,182 281,182 279,184 278,184 271,191 271,192 269,194 269,195 267,197 267,198 265,200 265,201 262,204 262,205 260,207 260,208 258,210 258,211 256,213 256,214 253,217 253,218 251,220 251,221 248,224 248,225 246,227 246,228 245,229 245,230 243,232 243,233 241,235 241,236 239,238 239,239 237,241 237,242 234,245 234,246 232,248 232,249 230,251 230,252 228,254 228,255 227,256 225,254 225,253 223,251 223,250 220,247 220,246 218,244 218,243 216,241 216,240 214,238 214,237 212,235 212,234 209,231 209,230 207,228 207,227 204,224 204,223 202,221 202,220 200,218 200,217 198,215 198,214 196,212 196,211 193,208 193,207 191,205 191,204 189,202 189,201 187,199 187,198 185,196 185,195 182,192 182,191 180,189 180,188 177,185 177,184 175,182 175,181 174,180" /></svg>